<svg width="66" height="68" viewBox="0 0 66 68" fill="none" xmlns="http://www.w3.org/2000/svg">
<circle cx="32" cy="33" r="19.5" stroke="white" stroke-width="11"/>
<path d="M37.1667 0H30.2917L28 10H39L37.1667 0Z" fill="white"/>
<path d="M59.5909 10.7064L54.2105 6.4266L44.9999 14.3245L53.6086 21.1722L59.5909 10.7064Z" fill="white"/>
<path d="M54.8115 58.3429L58.7549 52.7112L50.3094 44L44 53.0107L54.8115 58.3429Z" fill="white"/>
<path d="M65.9148 35.1667V28.2917L54.0001 26V37L65.9148 35.1667Z" fill="white"/>
<path d="M11.1739 6.14127L5.79348 10.4211L11.4171 21.1722L20.0258 14.3245L11.1739 6.14127Z" fill="white"/>
<path d="M7.38358 54.1949L12.5722 58.7053L22.1185 51.2166L13.8167 44L7.38358 54.1949Z" fill="white"/>
<path d="M0 29.8333L0 36.7083L11.9147 39L11.9147 28L0 29.8333Z" fill="white"/>
<path d="M29.8333 67.9147H36.7083L39 56H28L29.8333 67.9147Z" fill="white"/>
</svg>
